<?xml version="1.0" encoding="UTF-8" standalone="no"?>
<!-- Created with Inkscape (http://www.inkscape.org/) -->

<svg
   width="70.001816mm"
   height="22.666498mm"
   viewBox="0 0 70.001816 22.666498"
   version="1.1"
   id="svg2478"
   sodipodi:docname="dark_mode_wordmark_lowercase.svg"
   inkscape:version="1.1.2 (b8e25be833, 2022-02-05)"
   xmlns:inkscape="http://www.inkscape.org/namespaces/inkscape"
   xmlns:sodipodi="http://sodipodi.sourceforge.net/DTD/sodipodi-0.dtd"
   xmlns="http://www.w3.org/2000/svg"
   xmlns:svg="http://www.w3.org/2000/svg">
  <sodipodi:namedview
     id="namedview12"
     pagecolor="#ffffff"
     bordercolor="#666666"
     borderopacity="1.0"
     inkscape:pageshadow="2"
     inkscape:pageopacity="0.0"
     inkscape:pagecheckerboard="true"
     inkscape:document-units="mm"
     showgrid="false"
     fit-margin-top="0"
     fit-margin-left="0"
     fit-margin-right="0"
     fit-margin-bottom="0"
     inkscape:zoom="1.9994422"
     inkscape:cx="123.03431"
     inkscape:cy="-15.504324"
     inkscape:window-width="1920"
     inkscape:window-height="1017"
     inkscape:window-x="-8"
     inkscape:window-y="-8"
     inkscape:window-maximized="1"
     inkscape:current-layer="svg2478" />
  <defs
     id="defs2475" />
  <g
     id="g967"
     transform="translate(-2.2495861,-17.599696)">
    <g
       id="g9615"
       transform="translate(-59.217329,-138.31344)">
      <g
         id="g41739"
         transform="matrix(0.85714226,0,0,0.85714226,-1218.3151,927.76689)"
         style="display:inline;stroke-width:1.16667">
        <g
           id="g41829"
           style="display:inline"
           transform="matrix(1.1666675,0,0,1.1666675,-235.22352,200.90935)">
          <path
             d="m 1481.5343,-921.52789 v -22.40145 h 11.8268 c 2.2494,0 3.9423,0.53337 5.0786,1.6001 1.1595,1.06674 1.7393,2.57408 1.7393,4.52204 0,1.18268 -0.2319,2.17985 -0.6957,2.99149 -0.4406,0.78846 -1.032,1.40299 -1.7741,1.8436 1.0204,0.37104 1.8204,0.916 2.4002,1.63489 0.5797,0.71889 0.8696,1.79722 0.8696,3.23499 0,2.13347 -0.6261,3.76836 -1.8784,4.90466 -1.2522,1.11312 -3.0494,1.66968 -5.3916,1.66968 z m 4.4993,-13.28782 h 6.8068 c 0.9739,0 1.6812,-0.2203 2.1218,-0.66091 0.4406,-0.44061 0.661,-1.05514 0.661,-1.8436 0,-0.85802 -0.2204,-1.49575 -0.661,-1.91316 -0.4406,-0.44061 -1.2406,-0.66092 -2.4001,-0.66092 h -6.5285 z m 0,9.28756 h 7.3633 c 1.0204,0 1.774,-0.20871 2.261,-0.62613 0.5102,-0.41742 0.7653,-1.15949 0.7653,-2.22623 0,-0.85802 -0.2435,-1.49575 -0.7305,-1.91317 -0.487,-0.4406 -1.3218,-0.66091 -2.5045,-0.66091 h -7.1546 z"
             id="path41821"
             style="font-weight:600;font-size:135.945px;line-height:1.25;font-family:Kanit;-inkscape-font-specification:'Kanit Semi-Bold';word-spacing:0px;fill:#ffffff;stroke:#ffffff;stroke-width:0.264583;stroke-miterlimit:4;stroke-dasharray:none;stroke-opacity:1" />
          <path
             id="path41823"
             style="font-weight:600;font-size:135.945px;line-height:1.25;font-family:Kanit;-inkscape-font-specification:'Kanit Semi-Bold';word-spacing:0px;fill:#ffffff;stroke:#ffffff;stroke-width:0.264583;stroke-miterlimit:4;stroke-dasharray:none;stroke-opacity:1"
             d="m 1506.4181,-940.01134 v 3.60332 h 4.173 c 2.6047,0 4.2857,-0.0426 4.4195,1.62757 v 0.87865 c -0.037,0 -0.2304,6.8e-4 -0.3233,8.1e-4 h -2.4927 c 0,0 -0.049,6.8e-4 -0.099,10e-4 -0.3506,-6.8e-4 -0.6995,-10e-4 -1.0639,-0.002 -5.2023,0 -6.9053,2.88353 -7.1561,5.75075 -0.015,5.2321 3.7291,6.56658 7.1561,6.61879 2.1165,-0.009 4.173,0 4.173,0 h 3.9656 v -6.1849 -6.18478 -0.49069 c 0,-4.48165 -2.4644,-5.61832 -7.2996,-5.61832 z m 4.2893,10.10451 h 4.3032 v 2.18928 2.18941 h -1.7445 -2.5587 c -0.9821,0 -1.7058,-0.19377 -2.171,-0.58128 -0.4652,-0.38748 -0.6978,-0.91705 -0.6978,-1.5887 0,-0.007 7e-4,-0.0129 7e-4,-0.0194 h 7e-4 v -0.007 c 0,-0.15019 0.012,-0.29241 0.033,-0.4271 0.079,-0.47856 0.2998,-0.87018 0.6646,-1.17403 0.4652,-0.38751 1.1889,-0.58128 2.171,-0.58128 z" />
          <path
             d="m 1528.5277,-921.52789 c -3.1768,-0.15406 -4.4238,-2.60536 -4.3648,-5.87864 v -8.59296 h -2.4895 v -4.01186 h 2.4895 v -3.91799 h 4.0169 v 3.91799 h 4.4177 v 4.01186 h -4.4177 v 8.21032 c 0,0.78846 0.1971,1.48415 0.5914,1.80881 0.3942,0.30147 0.9855,0.45221 1.774,0.45221 l 2.0523,0.006 v 3.99471 z"
             id="path41825"
             style="font-weight:600;font-size:135.945px;line-height:1.25;font-family:Kanit;-inkscape-font-specification:'Kanit Semi-Bold';word-spacing:0px;fill:#ffffff;stroke:#ffffff;stroke-width:0.264583;stroke-miterlimit:4;stroke-dasharray:none;stroke-opacity:1" />
          <path
             id="path41827"
             style="fill:#ffffff;stroke:#ffffff;stroke-width:0.264583;stroke-linecap:round;stroke-miterlimit:4;stroke-dasharray:none;stroke-opacity:1"
             d="m 1543.5776,-940.01134 c -5.3998,0 -7.8157,1.34284 -7.9478,5.27667 0.1079,1.84396 0.6367,3.10179 2.0737,3.96515 h 0.024 c 0.1601,0.0968 0.3347,0.18873 0.5194,0.28834 3.2668,1.76133 7.8402,1.45762 8.1892,3.67678 0,0 0.092,1.20801 -1.2599,1.28157 h -3.1895 -2.7156 -3.6349 v 3.9951 h 3.9693 3.7181 c 5.3998,0 7.8156,-1.34284 7.9478,-5.27667 -0.108,-1.84396 -0.6368,-3.10176 -2.0737,-3.96512 h -0.024 c -0.16,-0.0968 -0.3346,-0.18875 -0.5193,-0.28837 -3.2668,-1.76133 -7.8403,-1.45764 -8.1892,-3.67678 0,0 -0.092,-1.20801 1.2599,-1.28156 h 3.1895 2.7155 3.635 v -3.99511 h -3.9693 z" />
        </g>
      </g>
    </g>
  </g>
</svg>
