<?xml version="1.0" encoding="UTF-8" standalone="no"?>
<!-- Created with Inkscape (http://www.inkscape.org/) -->

<svg
   width="80.745293mm"
   height="21.625351mm"
   viewBox="0 0 80.745293 21.625351"
   version="1.1"
   id="svg2478"
   inkscape:version="1.1.2 (b8e25be833, 2022-02-05)"
   sodipodi:docname="dark_mode_wordmark_uppercase.svg"
   xmlns:inkscape="http://www.inkscape.org/namespaces/inkscape"
   xmlns:sodipodi="http://sodipodi.sourceforge.net/DTD/sodipodi-0.dtd"
   xmlns="http://www.w3.org/2000/svg"
   xmlns:svg="http://www.w3.org/2000/svg">
  <sodipodi:namedview
     id="namedview2480"
     pagecolor="#ffffff"
     bordercolor="#666666"
     borderopacity="1.0"
     inkscape:pageshadow="2"
     inkscape:pageopacity="0.0"
     inkscape:pagecheckerboard="true"
     inkscape:document-units="mm"
     showgrid="false"
     fit-margin-top="0"
     fit-margin-left="0"
     fit-margin-right="0"
     fit-margin-bottom="0"
     inkscape:zoom="1.0469406"
     inkscape:cx="102.20255"
     inkscape:cy="46.325454"
     inkscape:window-width="1284"
     inkscape:window-height="1040"
     inkscape:window-x="632"
     inkscape:window-y="71"
     inkscape:window-maximized="0"
     inkscape:current-layer="g41739" />
  <defs
     id="defs2475" />
  <g
     inkscape:label="Layer 1"
     inkscape:groupmode="layer"
     id="layer1"
     transform="translate(-69.238415,-136.04173)">
    <g
       id="g9615">
      <g
         id="g41739"
         transform="matrix(0.85714226,0,0,0.85714226,-1218.3151,927.76689)"
         style="display:inline;stroke-width:1.16667">
        <g
           aria-label="BATS"
           id="g41789"
           style="font-size:15.875px;line-height:1.25;word-spacing:0px;display:inline;fill:#ffffff;stroke-width:0.128968"
           transform="matrix(2.3934725,0,0,2.3934725,1452.4353,-1069.4974)"
           inkscape:export-filename="D:\Art2021\2023\Bats-refined.png"
           inkscape:export-xdpi="150"
           inkscape:export-ydpi="150">
          <path
             d="m 20.76962,71.305199 v -10.2235 h 5.3975 q 1.539875,0 2.31775,0.73025 0.79375,0.73025 0.79375,2.06375 0,0.809625 -0.3175,1.36525 -0.301625,0.53975 -0.809625,0.841375 0.6985,0.254 1.095375,0.746125 0.396875,0.492125 0.396875,1.476375 0,1.4605 -0.85725,2.238375 -0.85725,0.762 -2.460625,0.762 z m 2.555875,-6.06425 h 2.079625 q 0.66675,0 0.968375,-0.301625 0.301625,-0.301625 0.301625,-0.841375 0,-0.587375 -0.301625,-0.873125 -0.301625,-0.301625 -1.095375,-0.301625 h -1.952625 z m 0,4.238625 h 2.333625 q 0.6985,0 1.031875,-0.28575 0.34925,-0.28575 0.34925,-1.016 0,-0.587375 -0.333375,-0.873125 -0.333375,-0.301625 -1.143,-0.301625 h -2.238375 z"
             style="font-weight:600;font-family:Kanit;-inkscape-font-specification:'Kanit Semi-Bold';stroke-width:0.128968"
             id="path41781" />
          <path
             d="m 31.152168,71.305199 3.90525,-10.2235 h 2.76225 l 3.90525,10.2235 h -2.667 l -0.92075,-2.31775 h -3.413125 l -0.904875,2.31775 z m 3.921125,-4.206875 h 2.714625 l -1.36525,-3.556 z"
             style="font-weight:600;font-family:Kanit;-inkscape-font-specification:'Kanit Semi-Bold';stroke-width:0.128968"
             id="path41783" />
          <path
             d="m 44.89475,71.305199 v -8.255 h -3.000375 v -1.9685 H 50.451 v 1.9685 h -3.000375 v 8.255 z"
             style="font-weight:600;font-family:Kanit;-inkscape-font-specification:'Kanit Semi-Bold';stroke-width:0.128968"
             id="path41785" />
          <path
             d="m 55.873376,71.463949 q -1.016,0 -1.905,-0.15875 -0.873125,-0.142875 -1.508125,-0.428625 v -2.174875 q 0.6985,0.301625 1.539875,0.492125 0.85725,0.1905 1.61925,0.1905 0.9525,0 1.412875,-0.174625 0.47625,-0.174625 0.47625,-0.762 0,-0.396875 -0.238125,-0.635 -0.22225,-0.238125 -0.746125,-0.41275 -0.508,-0.1905 -1.397,-0.4445 -1.04775,-0.3175 -1.666875,-0.6985 -0.619125,-0.396875 -0.889,-0.9525 -0.269875,-0.555625 -0.269875,-1.36525 0,-1.4605 1.04775,-2.238375 1.04775,-0.777875 3.095625,-0.777875 0.889,0 1.730375,0.142875 0.841375,0.127 1.36525,0.301625 v 2.19075 q -0.682625,-0.269875 -1.381125,-0.396875 -0.682625,-0.127 -1.3335,-0.127 -0.85725,0 -1.397,0.15875 -0.523875,0.15875 -0.523875,0.73025 0,0.333375 0.1905,0.53975 0.1905,0.1905 0.650875,0.34925 0.47625,0.15875 1.285875,0.381 1.254125,0.333375 1.920875,0.809625 0.66675,0.460375 0.92075,1.0795 0.254,0.60325 0.254,1.36525 0,1.349375 -1.04775,2.19075 -1.04775,0.8255 -3.20675,0.8255 z"
             style="font-weight:600;font-family:Kanit;-inkscape-font-specification:'Kanit Semi-Bold';stroke-width:0.128968"
             id="path41787" />
        </g>
      </g>
    </g>
  </g>
</svg>
