<?xml version="1.0" encoding="UTF-8" standalone="no"?>
<!-- Created with Inkscape (http://www.inkscape.org/) -->

<svg
   width="54.261147mm"
   height="43.081844mm"
   viewBox="0 0 54.261147 43.081844"
   version="1.1"
   id="svg2478"
   xmlns="http://www.w3.org/2000/svg"
   xmlns:svg="http://www.w3.org/2000/svg">
  <defs
     id="defs2475" />
  <g
     id="layer1"
     transform="translate(-71.195776,-139.44713)">
    <g
       id="g9615">
      <g
         id="g41739"
         transform="matrix(0.85714226,0,0,0.85714226,-1218.3151,927.76689)"
         style="display:inline;stroke-width:1.16667">
        <g
           id="g24595"
           transform="matrix(1.8087061,0,0,1.8087061,-1236.9066,713.01919)"
           style="stroke-width:0.64503">
          <path
             style="fill:#b1bbc0;fill-opacity:1;stroke:none;stroke-width:0.51199;stroke-linecap:butt;stroke-linejoin:miter;stroke-miterlimit:4;stroke-dasharray:none;stroke-opacity:1"
             d="m 1533.1344,-889.4993 2.9413,-2.92919 0.8498,3.37817 13.7088,-13.65367 -1.5371,6.21648 1.1421,4.5359 -3.0032,2.99127 -1.666,6.73802 -8.7932,3.67943 -3.6425,3.62793 -3.6425,-3.62793 -8.7932,-3.67943 -1.666,-6.73802 -3.0033,-2.99127 1.1421,-4.5359 -1.537,-6.21648 13.7088,13.65367 0.8498,-3.37817 z"
             id="path41727" />
          <g
             id="g41737"
             style="fill:#ffffff;fill-opacity:1;stroke-width:0.64503">
            <path
               style="fill:#ffffff;fill-opacity:1;stroke:none;stroke-width:0.170933;stroke-linecap:round;stroke-linejoin:bevel;stroke-miterlimit:4;stroke-dasharray:none;stroke-opacity:1"
               d="m 1545.57,-882.22245 -8.7932,3.67942 4.7021,-4.68334 z"
               id="path41729" />
            <path
               style="fill:#ffffff;fill-opacity:1;stroke:none;stroke-width:0.170933;stroke-linecap:round;stroke-linejoin:bevel;stroke-miterlimit:4;stroke-dasharray:none;stroke-opacity:1"
               d="m 1533.1343,-885.27404 17.5,-17.42995 -3.3983,13.74351 -5.7571,5.73411 z"
               id="path41731" />
            <path
               style="fill:#ffffff;fill-opacity:1;stroke:none;stroke-width:0.170933;stroke-linecap:round;stroke-linejoin:bevel;stroke-miterlimit:4;stroke-dasharray:none;stroke-opacity:1"
               d="m 1520.6986,-882.22245 8.7932,3.67942 -4.7021,-4.68334 z"
               id="path41733" />
            <path
               style="fill:#ffffff;fill-opacity:1;stroke:none;stroke-width:0.170933;stroke-linecap:round;stroke-linejoin:bevel;stroke-miterlimit:4;stroke-dasharray:none;stroke-opacity:1"
               d="m 1533.1343,-885.27404 -17.5,-17.42995 3.3983,13.74351 5.7571,5.73411 z"
               id="path41735" />
          </g>
        </g>
      </g>
    </g>
  </g>
</svg>
